<mxfile host="app.diagrams.net" modified="2023-06-25T22:52:30.864Z" agent="Mozilla/5.0 (Macintosh; Intel Mac OS X 10_15_7) AppleWebKit/605.1.15 (KHTML, like Gecko) Version/16.1 Safari/605.1.15" etag="Z5bGOfFRqa2-tXIqlrBi" version="21.5.0" type="github">
  <diagram id="C5RBs43oDa-KdzZeNtuy" name="Page-1">
    <mxGraphModel dx="1072" dy="672" grid="1" gridSize="10" guides="1" tooltips="1" connect="1" arrows="1" fold="1" page="1" pageScale="1" pageWidth="827" pageHeight="1169" math="0" shadow="0">
      <root>
        <mxCell id="WIyWlLk6GJQsqaUBKTNV-0" />
        <mxCell id="WIyWlLk6GJQsqaUBKTNV-1" parent="WIyWlLk6GJQsqaUBKTNV-0" />
        <mxCell id="n-GU-PAb05dEyt-C6J8y-0" style="edgeStyle=orthogonalEdgeStyle;shape=connector;rounded=0;orthogonalLoop=1;jettySize=auto;html=1;entryX=0;entryY=0.5;entryDx=0;entryDy=0;labelBackgroundColor=default;strokeColor=default;strokeWidth=2;fontFamily=Helvetica;fontSize=11;fontColor=default;endArrow=classic;" edge="1" parent="WIyWlLk6GJQsqaUBKTNV-1" source="n-GU-PAb05dEyt-C6J8y-1" target="n-GU-PAb05dEyt-C6J8y-4">
          <mxGeometry relative="1" as="geometry" />
        </mxCell>
        <mxCell id="n-GU-PAb05dEyt-C6J8y-1" value="&lt;font style=&quot;font-size: 21px;&quot; face=&quot;Tahoma&quot;&gt;OFF&amp;nbsp;&lt;/font&gt;" style="rounded=1;whiteSpace=wrap;html=1;strokeWidth=2;" vertex="1" parent="WIyWlLk6GJQsqaUBKTNV-1">
          <mxGeometry x="573" y="50" width="120" height="60" as="geometry" />
        </mxCell>
        <mxCell id="n-GU-PAb05dEyt-C6J8y-2" style="edgeStyle=orthogonalEdgeStyle;shape=connector;rounded=0;orthogonalLoop=1;jettySize=auto;html=1;entryX=0.5;entryY=0;entryDx=0;entryDy=0;labelBackgroundColor=default;strokeColor=default;strokeWidth=2;fontFamily=Helvetica;fontSize=11;fontColor=default;endArrow=classic;" edge="1" parent="WIyWlLk6GJQsqaUBKTNV-1" source="n-GU-PAb05dEyt-C6J8y-4" target="n-GU-PAb05dEyt-C6J8y-11">
          <mxGeometry relative="1" as="geometry" />
        </mxCell>
        <mxCell id="n-GU-PAb05dEyt-C6J8y-3" value="&lt;font style=&quot;font-size: 21px;&quot; face=&quot;Tahoma&quot;&gt;COM_BUS_CONNECT &amp;amp; SIG&lt;span style=&quot;text-align: start; font-size: 21px;&quot;&gt;_SL_DOWNLOADED&lt;/span&gt;&lt;/font&gt;" style="edgeLabel;html=1;align=center;verticalAlign=middle;resizable=0;points=[];fontSize=21;fontFamily=Helvetica;fontColor=default;" vertex="1" connectable="0" parent="n-GU-PAb05dEyt-C6J8y-2">
          <mxGeometry x="-0.1601" relative="1" as="geometry">
            <mxPoint x="225" y="11" as="offset" />
          </mxGeometry>
        </mxCell>
        <mxCell id="n-GU-PAb05dEyt-C6J8y-4" value="&lt;font face=&quot;Tahoma&quot;&gt;&lt;span style=&quot;font-size: 22px;&quot;&gt;EX_UNCONNECTED&lt;/span&gt;&lt;/font&gt;" style="rounded=1;whiteSpace=wrap;html=1;strokeWidth=2;" vertex="1" parent="WIyWlLk6GJQsqaUBKTNV-1">
          <mxGeometry x="862" y="50" width="226" height="60" as="geometry" />
        </mxCell>
        <mxCell id="n-GU-PAb05dEyt-C6J8y-5" style="edgeStyle=orthogonalEdgeStyle;rounded=0;orthogonalLoop=1;jettySize=auto;html=1;entryX=0;entryY=0.5;entryDx=0;entryDy=0;strokeWidth=2;" edge="1" parent="WIyWlLk6GJQsqaUBKTNV-1" source="n-GU-PAb05dEyt-C6J8y-6" target="n-GU-PAb05dEyt-C6J8y-1">
          <mxGeometry relative="1" as="geometry" />
        </mxCell>
        <mxCell id="n-GU-PAb05dEyt-C6J8y-6" value="" style="ellipse;fillColor=strokeColor;html=1;" vertex="1" parent="WIyWlLk6GJQsqaUBKTNV-1">
          <mxGeometry x="500" y="65" width="30" height="30" as="geometry" />
        </mxCell>
        <mxCell id="n-GU-PAb05dEyt-C6J8y-7" style="edgeStyle=orthogonalEdgeStyle;shape=connector;rounded=0;orthogonalLoop=1;jettySize=auto;html=1;entryX=0;entryY=0.5;entryDx=0;entryDy=0;labelBackgroundColor=default;strokeColor=default;strokeWidth=2;fontFamily=Helvetica;fontSize=11;fontColor=default;endArrow=classic;" edge="1" parent="WIyWlLk6GJQsqaUBKTNV-1" source="n-GU-PAb05dEyt-C6J8y-11" target="n-GU-PAb05dEyt-C6J8y-13">
          <mxGeometry relative="1" as="geometry" />
        </mxCell>
        <mxCell id="n-GU-PAb05dEyt-C6J8y-8" value="&lt;font face=&quot;Tahoma&quot; style=&quot;font-size: 21px;&quot;&gt;&lt;span style=&quot;font-size: 21px;&quot;&gt;SIG_IB_UPLOADED&lt;/span&gt;&lt;/font&gt;" style="edgeLabel;html=1;align=center;verticalAlign=middle;resizable=0;points=[];fontSize=21;fontFamily=Helvetica;fontColor=default;" vertex="1" connectable="0" parent="n-GU-PAb05dEyt-C6J8y-7">
          <mxGeometry x="0.3437" y="2" relative="1" as="geometry">
            <mxPoint x="-37" y="-48" as="offset" />
          </mxGeometry>
        </mxCell>
        <mxCell id="n-GU-PAb05dEyt-C6J8y-9" style="edgeStyle=orthogonalEdgeStyle;shape=connector;rounded=0;orthogonalLoop=1;jettySize=auto;html=1;exitX=0;exitY=0.5;exitDx=0;exitDy=0;entryX=1;entryY=0.5;entryDx=0;entryDy=0;labelBackgroundColor=default;strokeColor=default;strokeWidth=2;fontFamily=Helvetica;fontSize=11;fontColor=default;endArrow=classic;" edge="1" parent="WIyWlLk6GJQsqaUBKTNV-1" source="n-GU-PAb05dEyt-C6J8y-11" target="n-GU-PAb05dEyt-C6J8y-21">
          <mxGeometry relative="1" as="geometry" />
        </mxCell>
        <mxCell id="n-GU-PAb05dEyt-C6J8y-10" value="&lt;font face=&quot;Tahoma&quot; style=&quot;font-size: 21px;&quot;&gt;SIG_ALL_CLEAN&lt;/font&gt;" style="edgeLabel;html=1;align=center;verticalAlign=middle;resizable=0;points=[];fontSize=21;fontFamily=Helvetica;fontColor=default;" vertex="1" connectable="0" parent="n-GU-PAb05dEyt-C6J8y-9">
          <mxGeometry x="-0.1454" y="-3" relative="1" as="geometry">
            <mxPoint x="-7" y="-47" as="offset" />
          </mxGeometry>
        </mxCell>
        <mxCell id="n-GU-PAb05dEyt-C6J8y-11" value="&lt;font face=&quot;Tahoma&quot;&gt;&lt;span style=&quot;font-size: 22px;&quot;&gt;EX_CONNECTED&lt;/span&gt;&lt;/font&gt;" style="rounded=1;whiteSpace=wrap;html=1;strokeWidth=2;" vertex="1" parent="WIyWlLk6GJQsqaUBKTNV-1">
          <mxGeometry x="870" y="250" width="209" height="60" as="geometry" />
        </mxCell>
        <mxCell id="n-GU-PAb05dEyt-C6J8y-12" style="edgeStyle=orthogonalEdgeStyle;shape=connector;rounded=0;orthogonalLoop=1;jettySize=auto;html=1;exitX=0.5;exitY=1;exitDx=0;exitDy=0;entryX=0.5;entryY=0;entryDx=0;entryDy=0;labelBackgroundColor=default;strokeColor=default;strokeWidth=2;fontFamily=Helvetica;fontSize=11;fontColor=default;endArrow=classic;" edge="1" parent="WIyWlLk6GJQsqaUBKTNV-1" source="n-GU-PAb05dEyt-C6J8y-13" target="n-GU-PAb05dEyt-C6J8y-17">
          <mxGeometry relative="1" as="geometry" />
        </mxCell>
        <mxCell id="n-GU-PAb05dEyt-C6J8y-13" value="&lt;font face=&quot;Tahoma&quot;&gt;&lt;span style=&quot;font-size: 22px;&quot;&gt;EX_FETCHING&amp;nbsp;&lt;/span&gt;&lt;/font&gt;" style="rounded=1;whiteSpace=wrap;html=1;strokeWidth=2;" vertex="1" parent="WIyWlLk6GJQsqaUBKTNV-1">
          <mxGeometry x="1250" y="250" width="208" height="60" as="geometry" />
        </mxCell>
        <mxCell id="n-GU-PAb05dEyt-C6J8y-14" value="&lt;font style=&quot;font-size: 21px;&quot; face=&quot;Tahoma&quot;&gt;[EX_IR = 0]&lt;/font&gt;" style="edgeStyle=orthogonalEdgeStyle;shape=connector;rounded=0;orthogonalLoop=1;jettySize=auto;html=1;exitX=0.75;exitY=0;exitDx=0;exitDy=0;entryX=0.75;entryY=1;entryDx=0;entryDy=0;labelBackgroundColor=default;strokeColor=default;strokeWidth=2;fontFamily=Helvetica;fontSize=11;fontColor=default;endArrow=classic;" edge="1" parent="WIyWlLk6GJQsqaUBKTNV-1" source="n-GU-PAb05dEyt-C6J8y-17" target="n-GU-PAb05dEyt-C6J8y-13">
          <mxGeometry x="-0.0057" y="-63" relative="1" as="geometry">
            <mxPoint x="63" y="63" as="offset" />
          </mxGeometry>
        </mxCell>
        <mxCell id="n-GU-PAb05dEyt-C6J8y-15" style="edgeStyle=orthogonalEdgeStyle;shape=connector;rounded=0;orthogonalLoop=1;jettySize=auto;html=1;exitX=0.5;exitY=1;exitDx=0;exitDy=0;labelBackgroundColor=default;strokeColor=default;strokeWidth=2;fontFamily=Helvetica;fontSize=11;fontColor=default;endArrow=classic;" edge="1" parent="WIyWlLk6GJQsqaUBKTNV-1" source="n-GU-PAb05dEyt-C6J8y-17" target="n-GU-PAb05dEyt-C6J8y-19">
          <mxGeometry relative="1" as="geometry" />
        </mxCell>
        <mxCell id="n-GU-PAb05dEyt-C6J8y-16" value="&lt;font style=&quot;font-size: 21px;&quot; face=&quot;Tahoma&quot;&gt;[EX_IR &amp;gt; 0]&lt;/font&gt;" style="edgeLabel;html=1;align=center;verticalAlign=middle;resizable=0;points=[];fontSize=21;fontFamily=Helvetica;fontColor=default;" vertex="1" connectable="0" parent="n-GU-PAb05dEyt-C6J8y-15">
          <mxGeometry x="-0.0999" relative="1" as="geometry">
            <mxPoint x="66" as="offset" />
          </mxGeometry>
        </mxCell>
        <mxCell id="n-GU-PAb05dEyt-C6J8y-17" value="&lt;font face=&quot;Tahoma&quot;&gt;&lt;span style=&quot;font-size: 22px;&quot;&gt;EX_PARSING&lt;/span&gt;&lt;/font&gt;" style="rounded=1;whiteSpace=wrap;html=1;strokeWidth=2;" vertex="1" parent="WIyWlLk6GJQsqaUBKTNV-1">
          <mxGeometry x="1250" y="450" width="209" height="60" as="geometry" />
        </mxCell>
        <mxCell id="n-GU-PAb05dEyt-C6J8y-18" style="edgeStyle=orthogonalEdgeStyle;shape=connector;rounded=0;orthogonalLoop=1;jettySize=auto;html=1;labelBackgroundColor=default;strokeColor=default;strokeWidth=2;fontFamily=Helvetica;fontSize=11;fontColor=default;endArrow=classic;" edge="1" parent="WIyWlLk6GJQsqaUBKTNV-1" source="n-GU-PAb05dEyt-C6J8y-19" target="n-GU-PAb05dEyt-C6J8y-23">
          <mxGeometry relative="1" as="geometry" />
        </mxCell>
        <mxCell id="n-GU-PAb05dEyt-C6J8y-19" value="&lt;font face=&quot;Tahoma&quot;&gt;&lt;span style=&quot;font-size: 22px;&quot;&gt;EX_DOWNLOADING&amp;nbsp;&lt;/span&gt;&lt;/font&gt;" style="rounded=1;whiteSpace=wrap;html=1;strokeWidth=2;" vertex="1" parent="WIyWlLk6GJQsqaUBKTNV-1">
          <mxGeometry x="1250" y="650" width="209" height="60" as="geometry" />
        </mxCell>
        <mxCell id="n-GU-PAb05dEyt-C6J8y-20" style="edgeStyle=orthogonalEdgeStyle;shape=connector;rounded=0;orthogonalLoop=1;jettySize=auto;html=1;exitX=0.5;exitY=0;exitDx=0;exitDy=0;entryX=0.5;entryY=1;entryDx=0;entryDy=0;labelBackgroundColor=default;strokeColor=default;strokeWidth=2;fontFamily=Helvetica;fontSize=11;fontColor=default;endArrow=classic;" edge="1" parent="WIyWlLk6GJQsqaUBKTNV-1" source="n-GU-PAb05dEyt-C6J8y-21" target="n-GU-PAb05dEyt-C6J8y-1">
          <mxGeometry relative="1" as="geometry" />
        </mxCell>
        <mxCell id="n-GU-PAb05dEyt-C6J8y-21" value="&lt;font face=&quot;Tahoma&quot;&gt;&lt;span style=&quot;font-size: 22px;&quot;&gt;EX_CLEANING&lt;/span&gt;&lt;/font&gt;" style="rounded=1;whiteSpace=wrap;html=1;strokeWidth=2;" vertex="1" parent="WIyWlLk6GJQsqaUBKTNV-1">
          <mxGeometry x="520" y="250" width="226" height="60" as="geometry" />
        </mxCell>
        <mxCell id="n-GU-PAb05dEyt-C6J8y-22" style="edgeStyle=orthogonalEdgeStyle;shape=connector;rounded=0;orthogonalLoop=1;jettySize=auto;html=1;entryX=0.5;entryY=1;entryDx=0;entryDy=0;labelBackgroundColor=default;strokeColor=default;strokeWidth=2;fontFamily=Helvetica;fontSize=11;fontColor=default;endArrow=classic;" edge="1" parent="WIyWlLk6GJQsqaUBKTNV-1" source="n-GU-PAb05dEyt-C6J8y-23" target="n-GU-PAb05dEyt-C6J8y-25">
          <mxGeometry relative="1" as="geometry" />
        </mxCell>
        <mxCell id="n-GU-PAb05dEyt-C6J8y-23" value="&lt;font face=&quot;Tahoma&quot;&gt;&lt;span style=&quot;font-size: 22px;&quot;&gt;EX_WORKING&amp;nbsp;&lt;/span&gt;&lt;/font&gt;" style="rounded=1;whiteSpace=wrap;html=1;strokeWidth=2;" vertex="1" parent="WIyWlLk6GJQsqaUBKTNV-1">
          <mxGeometry x="870.5" y="650" width="209" height="60" as="geometry" />
        </mxCell>
        <mxCell id="n-GU-PAb05dEyt-C6J8y-24" style="edgeStyle=orthogonalEdgeStyle;shape=connector;rounded=0;orthogonalLoop=1;jettySize=auto;html=1;entryX=0.5;entryY=1;entryDx=0;entryDy=0;labelBackgroundColor=default;strokeColor=default;strokeWidth=2;fontFamily=Helvetica;fontSize=11;fontColor=default;endArrow=classic;" edge="1" parent="WIyWlLk6GJQsqaUBKTNV-1" source="n-GU-PAb05dEyt-C6J8y-25" target="n-GU-PAb05dEyt-C6J8y-11">
          <mxGeometry relative="1" as="geometry" />
        </mxCell>
        <mxCell id="n-GU-PAb05dEyt-C6J8y-25" value="&lt;font face=&quot;Tahoma&quot;&gt;&lt;span style=&quot;font-size: 22px;&quot;&gt;EX_UPLOADING&amp;nbsp;&lt;/span&gt;&lt;/font&gt;" style="rounded=1;whiteSpace=wrap;html=1;strokeWidth=2;" vertex="1" parent="WIyWlLk6GJQsqaUBKTNV-1">
          <mxGeometry x="870.5" y="450" width="209" height="60" as="geometry" />
        </mxCell>
      </root>
    </mxGraphModel>
  </diagram>
</mxfile>
